<?xml version="1.0"?>
<svg xmlns="http://www.w3.org/2000/svg" width="2149" height="732" viewBox="0 0 2149 732" role="img" aria-labelledby="title desc">
  <title id="title">ThroughPoint Marketing</title>
  <desc id="desc">ThroughPoint Marketing logo with an upward-right coral arrow inside a broken navy circle.</desc>
  <metadata>
    Native vector master. Typeface: Avenir Next Demi Bold, converted to outlines.
    Brand colors: navy #08294C; coral #F15F55. Background: transparent.
  </metadata>
  <g id="symbol">
    <path d="M430.83 249.7A176 176 0 0 1 182.7 497.83" fill="none" stroke="#08294C" stroke-width="28" stroke-linecap="butt"></path>
    <path d="M163.17 478.3A176 176 0 0 1 411.3 230.17" fill="none" stroke="#08294C" stroke-width="28" stroke-linecap="butt"></path>
    <path d="M217 452L360 309" fill="none" stroke="#F15F55" stroke-width="22" stroke-linecap="square"></path>
    <path d="M250 304H364V402" fill="none" stroke="#F15F55" stroke-width="22" stroke-linecap="square" stroke-linejoin="miter"></path>
  </g>
  <g id="wordmark" fill="#08294C" fill-rule="evenodd">
    <path d="M630.76 258.03L580.92 258.03L580.92 234.49L709.54 234.49L709.54 258.03L659.7 258.03L659.7 386L630.76 386ZM788.33 280.28Q799.12 280.28 806.82 283.81Q814.51 287.35 819.45 293.12Q824.39 298.9 826.68 306.39Q828.98 313.88 828.98 321.8L828.98 386L801.42 386L801.42 329.5Q801.42 325.01 800.73 320.19Q800.04 315.38 797.86 311.42Q795.68 307.46 791.66 304.89Q787.64 302.33 780.98 302.33Q774.31 302.33 769.49 304.68Q764.67 307.03 761.45 310.99Q758.24 314.95 756.63 319.87Q755.02 324.8 755.02 329.93L755.02 386L727.46 386L727.46 224.22L755.02 224.22L755.02 297.62L755.48 297.62Q757.09 294.41 760.19 291.31Q763.29 288.2 767.42 285.74Q771.56 283.28 776.84 281.78Q782.12 280.28 788.33 280.28ZM861.14 283.28L887.55 283.28L887.55 300.4L888.01 300.4Q892.6 291.41 900.87 285.85Q909.14 280.28 920.17 280.28Q921.77 280.28 923.61 280.39Q925.45 280.5 926.83 280.93L926.83 304.47Q924.07 303.82 922.12 303.61Q920.17 303.4 918.33 303.4Q908.91 303.4 903.17 306.61Q897.43 309.82 894.21 314.31Q891 318.8 889.85 323.51Q888.7 328.22 888.7 331L888.7 386L861.14 386ZM938.31 334.21Q938.31 322.01 943.02 312.06Q947.73 302.11 955.77 295.05Q963.81 287.99 974.83 284.14Q985.86 280.28 998.26 280.28Q1010.66 280.28 1021.69 284.14Q1032.71 287.99 1040.75 295.05Q1048.79 302.11 1053.5 312.06Q1058.21 322.01 1058.21 334.21Q1058.21 346.41 1053.5 356.47Q1048.79 366.53 1040.75 373.69Q1032.71 380.86 1021.69 384.93Q1010.66 389 998.26 389Q985.86 389 974.83 384.93Q963.81 380.86 955.77 373.69Q947.73 366.53 943.02 356.47Q938.31 346.41 938.31 334.21ZM966.33 334.21Q966.33 340.2 968.28 346.2Q970.24 352.19 974.14 356.9Q978.05 361.6 984.02 364.6Q989.99 367.6 998.26 367.6Q1006.53 367.6 1012.5 364.6Q1018.47 361.6 1022.38 356.9Q1026.28 352.19 1028.23 346.2Q1030.18 340.2 1030.18 334.21Q1030.18 328.22 1028.23 322.34Q1026.28 316.45 1022.38 311.74Q1018.47 307.03 1012.5 304.14Q1006.53 301.26 998.26 301.26Q989.99 301.26 984.02 304.14Q978.05 307.03 974.14 311.74Q970.24 316.45 968.28 322.34Q966.33 328.22 966.33 334.21ZM1185.45 386L1159.27 386L1159.27 369.52L1158.81 369.52Q1155.13 377.23 1146.06 383.11Q1136.99 389 1124.59 389Q1113.79 389 1106.1 385.47Q1098.4 381.93 1093.46 376.16Q1088.53 370.38 1086.23 362.89Q1083.93 355.4 1083.93 347.48L1083.93 283.28L1111.49 283.28L1111.49 340.2Q1111.49 344.7 1112.18 349.62Q1112.87 354.54 1115.17 358.5Q1117.47 362.46 1121.49 365.03Q1125.5 367.6 1132.17 367.6Q1138.6 367.6 1143.54 365.13Q1148.47 362.67 1151.57 358.82Q1154.67 354.97 1156.28 349.94Q1157.89 344.91 1157.89 339.78L1157.89 283.28L1185.45 283.28ZM1330.61 283.28L1330.61 376.8Q1330.61 390.71 1326.94 401.94Q1323.26 413.18 1315.57 420.99Q1307.88 428.8 1296.16 433.08Q1284.45 437.36 1268.37 437.36Q1261.71 437.36 1254.24 436.29Q1246.78 435.22 1239.54 433.08Q1232.31 430.94 1225.65 427.73Q1218.99 424.52 1213.7 420.45L1229.55 400.55Q1237.59 407.61 1247.7 411.36Q1257.8 415.1 1268.14 415.1Q1278.02 415.1 1284.79 412.43Q1291.57 409.75 1295.59 405.05Q1299.61 400.34 1301.33 393.92Q1303.05 387.5 1303.05 379.79L1303.05 372.3L1302.59 372.3Q1296.62 379.79 1287.32 383.75Q1278.02 387.71 1266.53 387.71Q1254.13 387.71 1244.02 383.43Q1233.92 379.15 1226.91 371.88Q1219.91 364.6 1216 354.86Q1212.1 345.13 1212.1 334.21Q1212.1 323.08 1215.89 313.24Q1219.68 303.4 1226.68 296.12Q1233.69 288.84 1243.68 284.56Q1253.67 280.28 1266.07 280.28Q1277.79 280.28 1287.89 284.78Q1298 289.27 1303.97 298.69L1304.43 298.69L1304.43 283.28ZM1271.81 301.26Q1264.24 301.26 1258.38 303.82Q1252.52 306.39 1248.5 310.78Q1244.48 315.17 1242.3 321.16Q1240.12 327.15 1240.12 334Q1240.12 340.2 1242.3 345.98Q1244.48 351.76 1248.5 356.36Q1252.52 360.96 1258.38 363.74Q1264.24 366.53 1271.59 366.53Q1279.16 366.53 1285.25 363.85Q1291.34 361.18 1295.59 356.68Q1299.84 352.19 1302.13 346.3Q1304.43 340.42 1304.43 334Q1304.43 327.36 1302.13 321.37Q1299.84 315.38 1295.59 310.89Q1291.34 306.39 1285.37 303.82Q1279.39 301.26 1271.81 301.26ZM1425.02 280.28Q1435.81 280.28 1443.51 283.81Q1451.2 287.35 1456.14 293.12Q1461.08 298.9 1463.37 306.39Q1465.67 313.88 1465.67 321.8L1465.67 386L1438.11 386L1438.11 329.5Q1438.11 325.01 1437.42 320.19Q1436.73 315.38 1434.55 311.42Q1432.37 307.46 1428.35 304.89Q1424.33 302.33 1417.67 302.33Q1411 302.33 1406.18 304.68Q1401.36 307.03 1398.14 310.99Q1394.93 314.95 1393.32 319.87Q1391.71 324.8 1391.71 329.93L1391.71 386L1364.15 386L1364.15 224.22L1391.71 224.22L1391.71 297.62L1392.17 297.62Q1393.78 294.41 1396.88 291.31Q1399.98 288.2 1404.11 285.74Q1408.25 283.28 1413.53 281.78Q1418.81 280.28 1425.02 280.28ZM1499.2 234.49L1552.26 234.49Q1566.27 234.49 1577.53 236.84Q1588.78 239.2 1596.82 244.55Q1604.86 249.9 1609.22 258.24Q1613.59 266.59 1613.59 278.36Q1613.59 290.98 1608.53 299.54Q1603.48 308.1 1594.87 313.35Q1586.26 318.59 1574.77 320.94Q1563.29 323.3 1550.42 323.3L1528.14 323.3L1528.14 386L1499.2 386ZM1548.36 300.61Q1555.48 300.61 1561.91 299.65Q1568.34 298.69 1573.39 296.23Q1578.45 293.77 1581.43 289.49Q1584.42 285.21 1584.42 278.36Q1584.42 271.72 1581.43 267.55Q1578.45 263.38 1573.51 261.02Q1568.57 258.67 1562.25 257.92Q1555.94 257.17 1549.28 257.17L1528.14 257.17L1528.14 300.61ZM1631.5 334.21Q1631.5 322.01 1636.21 312.06Q1640.92 302.11 1648.96 295.05Q1657 287.99 1668.02 284.14Q1679.05 280.28 1691.45 280.28Q1703.85 280.28 1714.88 284.14Q1725.9 287.99 1733.94 295.05Q1741.98 302.11 1746.69 312.06Q1751.4 322.01 1751.4 334.21Q1751.4 346.41 1746.69 356.47Q1741.98 366.53 1733.94 373.69Q1725.9 380.86 1714.88 384.93Q1703.85 389 1691.45 389Q1679.05 389 1668.02 384.93Q1657 380.86 1648.96 373.69Q1640.92 366.53 1636.21 356.47Q1631.5 346.41 1631.5 334.21ZM1659.53 334.21Q1659.53 340.2 1661.48 346.2Q1663.43 352.19 1667.33 356.9Q1671.24 361.6 1677.21 364.6Q1683.18 367.6 1691.45 367.6Q1699.72 367.6 1705.69 364.6Q1711.66 361.6 1715.57 356.9Q1719.47 352.19 1721.43 346.2Q1723.38 340.2 1723.38 334.21Q1723.38 328.22 1721.43 322.34Q1719.47 316.45 1715.57 311.74Q1711.66 307.03 1705.69 304.14Q1699.72 301.26 1691.45 301.26Q1683.18 301.26 1677.21 304.14Q1671.24 307.03 1667.33 311.74Q1663.43 316.45 1661.48 322.34Q1659.53 328.22 1659.53 334.21ZM1778.5 283.28L1806.06 283.28L1806.06 386L1778.5 386ZM1774.6 248.4Q1774.6 242.19 1779.54 237.59Q1784.47 232.99 1792.05 232.99Q1799.63 232.99 1804.8 237.38Q1809.97 241.76 1809.97 248.4Q1809.97 255.03 1804.8 259.42Q1799.63 263.81 1792.05 263.81Q1784.47 263.81 1779.54 259.2Q1774.6 254.6 1774.6 248.4ZM1839.6 283.28L1865.78 283.28L1865.78 299.76L1866.24 299.76Q1869.92 292.05 1878.99 286.17Q1888.06 280.28 1900.47 280.28Q1911.26 280.28 1918.96 283.81Q1926.65 287.35 1931.59 293.12Q1936.53 298.9 1938.82 306.39Q1941.12 313.88 1941.12 321.8L1941.12 386L1913.56 386L1913.56 329.08Q1913.56 324.58 1912.87 319.66Q1912.18 314.74 1909.88 310.78Q1907.59 306.82 1903.57 304.25Q1899.55 301.68 1892.89 301.68Q1886.23 301.68 1881.4 304.14Q1876.58 306.61 1873.48 310.46Q1870.38 314.31 1868.77 319.34Q1867.16 324.37 1867.16 329.5L1867.16 386L1839.6 386ZM1957.43 303.82L1957.43 283.28L1976.72 283.28L1976.72 253.53L2003.82 253.53L2003.82 283.28L2031.39 283.28L2031.39 303.82L2003.82 303.82L2003.82 351.55Q2003.82 358.39 2006.47 362.89Q2009.11 367.38 2018.29 367.38Q2021.05 367.38 2024.27 366.85Q2027.48 366.31 2030.01 365.24L2030.93 385.36Q2027.25 386.64 2022.2 387.39Q2017.15 388.14 2012.55 388.14Q2001.53 388.14 1994.64 385.25Q1987.75 382.36 1983.73 377.33Q1979.71 372.3 1978.21 365.78Q1976.72 359.25 1976.72 351.76L1976.72 303.82Z"></path>
  </g>
  <g id="descriptor" fill="#F15F55" fill-rule="evenodd">
    <path d="M613.4 453.94L629.55 453.94L644.64 495.19L644.88 495.19L659.81 453.94L676.04 453.94L676.04 512L665.79 512L665.79 465.34L665.63 465.34L648 512L640.78 512L623.4 465.34L623.24 465.34L623.24 512L613.4 512ZM735.79 453.94L744.73 453.94L769.74 512L757.93 512L752.52 498.72L727.34 498.72L722.1 512L710.53 512ZM748.91 489.86L739.97 466.24L730.87 489.86ZM804.23 453.94L824.4 453.94Q828.5 453.94 832.35 454.81Q836.21 455.67 839.2 457.63Q842.19 459.6 844 462.8Q845.8 466 845.8 470.59Q845.8 476.9 842.24 480.88Q838.67 484.86 832.52 486.25L848.02 512L835.55 512L822.1 487.4L814.56 487.4L814.56 512L804.23 512ZM823.01 478.95Q825.22 478.95 827.43 478.63Q829.65 478.3 831.41 477.4Q833.17 476.49 834.32 474.81Q835.47 473.13 835.47 470.51Q835.47 468.13 834.4 466.61Q833.34 465.1 831.7 464.19Q830.06 463.29 827.97 462.96Q825.88 462.64 823.91 462.64L814.56 462.64L814.56 478.95ZM884.56 453.94L894.89 453.94L894.89 479.04L895.13 479.04L919.41 453.94L933.35 453.94L906.2 480.76L935.15 512L920.64 512L895.13 482.89L894.89 482.89L894.89 512L884.56 512ZM969.8 453.94L1008.26 453.94L1008.26 462.96L980.14 462.96L980.14 477.72L1006.79 477.72L1006.79 486.42L980.14 486.42L980.14 502.82L1009.74 502.82L1009.74 512L969.8 512ZM1060.3 462.96L1042.51 462.96L1042.51 453.94L1088.43 453.94L1088.43 462.96L1070.63 462.96L1070.63 512L1060.3 512ZM1123.9 453.94L1134.23 453.94L1134.23 512L1123.9 512ZM1175.77 453.94L1189.47 453.94L1216.45 497.4L1216.61 497.4L1216.61 453.94L1226.94 453.94L1226.94 512L1213.82 512L1186.27 467.15L1186.11 467.15L1186.11 512L1175.77 512ZM1319.32 508.97Q1314.9 511.1 1309.61 512.29Q1304.32 513.48 1297.43 513.48Q1290.38 513.48 1284.56 511.22Q1278.73 508.97 1274.55 504.91Q1270.37 500.85 1268.03 495.23Q1265.7 489.61 1265.7 482.81Q1265.7 475.84 1268.12 470.22Q1270.53 464.6 1274.76 460.67Q1278.98 456.73 1284.72 454.6Q1290.46 452.47 1297.18 452.47Q1304.15 452.47 1309.94 454.48Q1315.72 456.49 1319.24 459.77L1312.11 467.47Q1309.89 465.01 1305.92 463.29Q1301.94 461.57 1297.27 461.57Q1292.67 461.57 1288.94 463.21Q1285.21 464.85 1282.59 467.72Q1279.96 470.59 1278.53 474.44Q1277.09 478.3 1277.09 482.81Q1277.09 487.48 1278.53 491.38Q1279.96 495.27 1282.63 498.14Q1285.29 501.01 1289.11 502.61Q1292.92 504.21 1297.76 504.21Q1304.4 504.21 1309.32 502.16L1309.32 487.4L1297.1 487.4L1297.1 478.87L1319.32 478.87Z"></path>
  </g>
</svg>